<svg width="181" height="10" viewBox="0 0 181 10" fill="none" xmlns="http://www.w3.org/2000/svg">
<path d="M0 9.86631V0.13369H2.0832C2.72521 0.13369 3.2929 0.320855 3.78624 0.695188C4.27959 1.06952 4.65973 1.60205 4.92668 2.29278C5.197 2.98351 5.33385 3.77674 5.33724 4.67246V5.29412C5.33724 6.21212 5.20207 7.01648 4.93175 7.70721C4.6648 8.39795 4.28127 8.92825 3.78117 9.29812C3.28445 9.668 2.70494 9.8574 2.04264 9.86631H0ZM0.973167 1.18984V8.81684H1.99703C2.74718 8.81684 3.33007 8.50936 3.74569 7.89438C4.1647 7.27941 4.3742 6.40374 4.3742 5.26738V4.69919C4.3742 3.59402 4.17652 2.73618 3.78117 2.12566C3.3892 1.51069 2.83165 1.19875 2.10853 1.18984H0.973167ZM10.9836 5.36764H7.78536V8.81684H11.5007V9.86631H6.81219V0.13369H11.45V1.18984H7.78536V4.31818H10.9836V5.36764ZM20.7356 8.58957C20.4856 9.06194 20.1359 9.41622 19.6864 9.6524C19.2404 9.88413 18.7201 10 18.1253 10C17.5238 10 16.99 9.81506 16.5236 9.44519C16.0573 9.07085 15.6958 8.54055 15.439 7.85428C15.1855 7.16801 15.0554 6.37255 15.0486 5.46791V4.61898C15.0486 3.15285 15.3071 2.01649 15.8242 1.20989C16.3446 0.403298 17.0744 0 18.0138 0C18.7842 0 19.4043 0.260695 19.8739 0.782086C20.3436 1.29901 20.6308 2.03432 20.7356 2.98796H19.7624C19.58 1.70009 18.9988 1.05615 18.0188 1.05615C17.3667 1.05615 16.8716 1.35918 16.5337 1.96524C16.1992 2.56684 16.0303 3.44029 16.0269 4.58556V5.38101C16.0269 6.47281 16.2161 7.3418 16.5946 7.98797C16.973 8.62968 17.4849 8.95054 18.1304 8.95054C18.4953 8.95054 18.8146 8.89705 19.0883 8.7901C19.362 8.68315 19.5885 8.50267 19.7675 8.24866V6.06284H18.0594V5.02005H20.7356V8.58957ZM26.5341 5.36764H23.3358V8.81684H27.0511V9.86631H22.3627V0.13369H27.0004V1.18984H23.3358V4.31818H26.5341V5.36764ZM30.4369 5.52808C29.6023 5.21167 28.994 4.82398 28.6122 4.36497C28.2338 3.90151 28.0446 3.3311 28.0446 2.65374C28.0446 1.88726 28.276 1.25445 28.7389 0.755346C29.2053 0.251783 29.8101 0 30.5535 0C31.0604 0 31.5115 0.129234 31.9068 0.387701C32.3055 0.646168 32.613 1.00268 32.8293 1.45722C33.0489 1.91176 33.1588 2.40864 33.1588 2.94786H32.1805C32.1805 2.35962 32.0386 1.89839 31.7547 1.56418C31.4709 1.22549 31.0705 1.05615 30.5535 1.05615C30.0737 1.05615 29.6986 1.19652 29.4283 1.47727C29.1613 1.75356 29.0279 2.13903 29.0279 2.63369C29.0279 3.0303 29.1546 3.36675 29.408 3.64304C29.6648 3.91488 30.0991 4.16443 30.7106 4.39171C31.3256 4.61898 31.8054 4.87076 32.1501 5.14706C32.4982 5.41889 32.755 5.73752 32.9206 6.10294C33.0895 6.46835 33.1739 6.8984 33.1739 7.39304C33.1739 8.18182 32.9408 8.81461 32.4745 9.29144C32.0082 9.76382 31.3848 10 30.6041 10C30.0973 10 29.6242 9.87299 29.185 9.61898C28.7457 9.36051 28.4061 9.00847 28.1662 8.56283C27.9296 8.1172 27.8114 7.61141 27.8114 7.04545H28.7896C28.7896 7.63369 28.9535 8.09937 29.2812 8.44251C29.6125 8.78119 30.0534 8.95054 30.6041 8.95054C31.1178 8.95054 31.5115 8.81238 31.7852 8.53609C32.0589 8.2598 32.1957 7.88324 32.1957 7.40641C32.1957 6.92959 32.069 6.56195 31.8156 6.30347C31.5622 6.04055 31.1026 5.78208 30.4369 5.52808ZM39.8544 6.77807C39.7631 7.80748 39.4742 8.60294 38.9876 9.16444C38.5045 9.72148 37.8607 10 37.0565 10C36.1847 10 35.4852 9.58779 34.9581 8.76336C34.4344 7.93895 34.1724 6.836 34.1724 5.45454V4.51872C34.1724 3.61408 34.2942 2.81863 34.5374 2.13235C34.7841 1.44608 35.1321 0.920228 35.5815 0.554814C36.031 0.184938 36.5513 0 37.1426 0C37.9266 0 38.5551 0.289662 39.0282 0.868983C39.5013 1.44385 39.7767 2.24154 39.8544 3.26203H38.8761C38.7917 2.48663 38.6075 1.92513 38.3237 1.57755C38.0432 1.22995 37.6496 1.05615 37.1426 1.05615C36.5209 1.05615 36.0326 1.35918 35.6779 1.96524C35.3264 2.5713 35.1507 3.4336 35.1507 4.55214V5.49465C35.1507 6.5508 35.318 7.39082 35.6525 8.0147C35.987 8.63859 36.455 8.95054 37.0565 8.95054C37.5971 8.95054 38.0111 8.7901 38.2983 8.46925C38.5889 8.14393 38.7815 7.58021 38.8761 6.77807H39.8544ZM46.8592 9.86631H45.8809V5.36764H42.1606V9.86631H41.1874V0.13369H42.1606V4.31818H45.8809V0.13369H46.8592V9.86631ZM49.6317 9.86631H48.6585V0.13369H49.6317V9.86631ZM55.5873 5.36764H52.389V8.81684H56.1043V9.86631H51.4158V0.13369H56.0536V1.18984H52.389V4.31818H55.5873V5.36764ZM57.3156 9.86631V0.13369H59.3988C60.0409 0.13369 60.6086 0.320855 61.1019 0.695188C61.5953 1.06952 61.9754 1.60205 62.2424 2.29278C62.5127 2.98351 62.6496 3.77674 62.6529 4.67246V5.29412C62.6529 6.21212 62.5177 7.01648 62.2474 7.70721C61.9805 8.39795 61.597 8.92825 61.0968 9.29812C60.6001 9.668 60.0206 9.8574 59.3584 9.86631H57.3156ZM58.2888 1.18984V8.81684H59.3127C60.0628 8.81684 60.6458 8.50936 61.0614 7.89438C61.4804 7.27941 61.6899 6.40374 61.6899 5.26738V4.69919C61.6899 3.59402 61.4922 2.73618 61.0968 2.12566C60.7049 1.51069 60.1474 1.19875 59.4242 1.18984H58.2888ZM68.2993 5.36764H65.101V8.81684H68.8164V9.86631H64.1278V0.13369H68.7657V1.18984H65.101V4.31818H68.2993V5.36764ZM75.6995 9.86631H74.7212L71.006 2.36631V9.86631H70.0278V0.13369H71.006L74.7314 7.66711V0.13369H75.6995V9.86631ZM78.472 9.86631H77.4989V0.13369H78.472V9.86631ZM82.4305 5.52808C81.5959 5.21167 80.9877 4.82398 80.6059 4.36497C80.2275 3.90151 80.0382 3.3311 80.0382 2.65374C80.0382 1.88726 80.2697 1.25445 80.7326 0.755346C81.1989 0.251783 81.8037 0 82.5471 0C83.0541 0 83.5051 0.129234 83.9005 0.387701C84.2992 0.646168 84.6067 1.00268 84.823 1.45722C85.0426 1.91176 85.1524 2.40864 85.1524 2.94786H84.1742C84.1742 2.35962 84.0323 1.89839 83.7484 1.56418C83.4646 1.22549 83.0642 1.05615 82.5471 1.05615C82.0673 1.05615 81.6922 1.19652 81.4219 1.47727C81.1549 1.75356 81.0215 2.13903 81.0215 2.63369C81.0215 3.0303 81.1482 3.36675 81.4017 3.64304C81.6585 3.91488 82.0927 4.16443 82.7043 4.39171C83.3193 4.61898 83.7991 4.87076 84.1438 5.14706C84.4918 5.41889 84.7486 5.73752 84.9142 6.10294C85.0832 6.46835 85.1676 6.8984 85.1676 7.39304C85.1676 8.18182 84.9345 8.81461 84.4681 9.29144C84.0019 9.76382 83.3785 10 82.5978 10C82.091 10 81.6179 9.87299 81.1787 9.61898C80.7394 9.36051 80.3998 9.00847 80.1598 8.56283C79.9233 8.1172 79.8051 7.61141 79.8051 7.04545H80.7833C80.7833 7.63369 80.9472 8.09937 81.2749 8.44251C81.6061 8.78119 82.0471 8.95054 82.5978 8.95054C83.1115 8.95054 83.5051 8.81238 83.7788 8.53609C84.0525 8.2598 84.1894 7.88324 84.1894 7.40641C84.1894 6.92959 84.0627 6.56195 83.8092 6.30347C83.5558 6.04055 83.0963 5.78208 82.4305 5.52808ZM91.4372 8.16176L93.5461 0.13369H94.6101L91.8731 9.86631H91.0116L88.2798 0.13369H89.3394L91.4372 8.16176ZM99.2935 7.3262H96.2018L95.5072 9.86631H94.5037L97.322 0.13369H98.1732L100.997 9.86631H99.9985L99.2935 7.3262ZM96.4959 6.27006H99.0045L97.7476 1.71791L96.4959 6.27006ZM107.662 9.86631H106.684L102.968 2.36631V9.86631H101.991V0.13369H102.968L106.694 7.66711V0.13369H107.662V9.86631ZM117.637 9.86631H116.659V5.36764H112.939V9.86631H111.965V0.13369H112.939V4.31818H116.659V0.13369H117.637V9.86631ZM123.537 5.36764H120.339V8.81684H124.054V9.86631H119.366V0.13369H124.003V1.18984H120.339V4.31818H123.537V5.36764ZM130.466 1.18984H128.093V9.86631H127.125V1.18984H124.759V0.13369H130.466V1.18984ZM134.976 9.86631H134.003V0.13369H134.976V9.86631ZM142.433 9.86631H141.455L137.739 2.36631V9.86631H136.761V0.13369H137.739L141.464 7.66711V0.13369H142.433V9.86631ZM149.108 1.18984H146.736V9.86631H145.768V1.18984H143.401V0.13369H149.108V1.18984ZM154.374 5.36764H151.176V8.81684H154.891V9.86631H150.203V0.13369H154.84V1.18984H151.176V4.31818H154.374V5.36764ZM158.809 5.92914H157.076V9.86631H156.097V0.13369H158.541C159.372 0.13369 160.011 0.383245 160.456 0.882353C160.906 1.38146 161.131 2.10784 161.131 3.0615C161.131 3.66756 161.005 4.19564 160.755 4.64572C160.509 5.09581 160.165 5.43226 159.722 5.65507L161.455 9.7861V9.86631H160.411L158.809 5.92914ZM157.076 4.87968H158.571C159.054 4.87968 159.438 4.7148 159.722 4.38502C160.009 4.05526 160.153 3.61408 160.153 3.0615C160.153 2.45989 160.016 1.99867 159.742 1.67781C159.472 1.35696 159.08 1.1943 158.566 1.18984H157.076V4.87968ZM168.171 9.86631H167.193L163.478 2.36631V9.86631H162.499V0.13369H163.478L167.203 7.66711V0.13369H168.171V9.86631ZM174.071 5.36764H170.872V8.81684H174.587V9.86631H169.899V0.13369H174.537V1.18984H170.872V4.31818H174.071V5.36764ZM181 1.18984H178.627V9.86631H177.659V1.18984H175.292V0.13369H181V1.18984Z" fill="white"/>
</svg>
